<?xml version="1.0" encoding="utf-8" ?>
<svg xmlns="http://www.w3.org/2000/svg" xmlns:ev="http://www.w3.org/2001/xml-events" xmlns:xlink="http://www.w3.org/1999/xlink" baseProfile="full" height="608" version="1.1" width="500">
  <defs>
    <style type="text/css"><![CDATA[
    @import url(https://fonts.googleapis.com/css?family=Open+Sans);
    .svg-font {
        font-family: "Open Sans";
        font-size: 12px;
        fill: #999;
    }
    ]]></style>
  </defs>
  <g class="svg-font" transform="translate(0,0)">
    <text style="text-anchor:end;" x="200" y="18">Ukrainian (uk)</text>
    <rect fill="#999" height="16" rx="0" ry="0" style="filter:opacity(30%);" width="160" x="212" y="6"/>
    <rect fill="#5D89C3" height="16" rx="0" ry="0" width="128.0" x="212" y="6"/>
    <text x="384" y="16">80%</text>
  </g>
  <g class="svg-font" transform="translate(0,32)">
    <text style="text-anchor:end;" x="200" y="18">German (de)</text>
    <rect fill="#999" height="16" rx="0" ry="0" style="filter:opacity(30%);" width="160" x="212" y="6"/>
    <rect fill="#5D89C3" height="16" rx="0" ry="0" width="107.2" x="212" y="6"/>
    <text x="384" y="16">67%</text>
  </g>
  <g class="svg-font" transform="translate(0,64)">
    <text style="text-anchor:end;" x="200" y="18">Turkish (tr)</text>
    <rect fill="#999" height="16" rx="0" ry="0" style="filter:opacity(30%);" width="160" x="212" y="6"/>
    <rect fill="#5D89C3" height="16" rx="0" ry="0" width="59.2" x="212" y="6"/>
    <text x="384" y="16">37%</text>
  </g>
  <g class="svg-font" transform="translate(0,96)">
    <text style="text-anchor:end;" x="200" y="18">Spanish (es-ES)</text>
    <rect fill="#999" height="16" rx="0" ry="0" style="filter:opacity(30%);" width="160" x="212" y="6"/>
    <rect fill="#5D89C3" height="16" rx="0" ry="0" width="51.2" x="212" y="6"/>
    <text x="384" y="16">32%</text>
  </g>
  <g class="svg-font" transform="translate(0,128)">
    <text style="text-anchor:end;" x="200" y="18">Italian (it)</text>
    <rect fill="#999" height="16" rx="0" ry="0" style="filter:opacity(30%);" width="160" x="212" y="6"/>
    <rect fill="#5D89C3" height="16" rx="0" ry="0" width="11.200000000000001" x="212" y="6"/>
    <text x="384" y="16">7%</text>
  </g>
  <g class="svg-font" transform="translate(0,160)">
    <text style="text-anchor:end;" x="200" y="18">Swedish (sv-SE)</text>
    <rect fill="#999" height="16" rx="0" ry="0" style="filter:opacity(30%);" width="160" x="212" y="6"/>
    <rect fill="#5D89C3" height="16" rx="0" ry="0" width="9.6" x="212" y="6"/>
    <text x="384" y="16">6%</text>
  </g>
  <g class="svg-font" transform="translate(0,192)">
    <text style="text-anchor:end;" x="200" y="18">Chinese Simplified (zh-CN)</text>
    <rect fill="#999" height="16" rx="0" ry="0" style="filter:opacity(30%);" width="160" x="212" y="6"/>
    <rect fill="#5D89C3" height="16" rx="0" ry="0" width="8.0" x="212" y="6"/>
    <text x="384" y="16">5%</text>
  </g>
  <g class="svg-font" transform="translate(0,224)">
    <text style="text-anchor:end;" x="200" y="18">French (fr)</text>
    <rect fill="#999" height="16" rx="0" ry="0" style="filter:opacity(30%);" width="160" x="212" y="6"/>
    <rect fill="#5D89C3" height="16" rx="0" ry="0" width="6.4" x="212" y="6"/>
    <text x="384" y="16">4%</text>
  </g>
  <g class="svg-font" transform="translate(0,256)">
    <text style="text-anchor:end;" x="200" y="18">Polish (pl)</text>
    <rect fill="#999" height="16" rx="0" ry="0" style="filter:opacity(30%);" width="160" x="212" y="6"/>
    <rect fill="#5D89C3" height="16" rx="0" ry="0" width="3.2" x="212" y="6"/>
    <text x="384" y="16">2%</text>
  </g>
  <g class="svg-font" transform="translate(0,288)">
    <text style="text-anchor:end;" x="200" y="18">Russian (ru)</text>
    <rect fill="#999" height="16" rx="0" ry="0" style="filter:opacity(30%);" width="160" x="212" y="6"/>
    <rect fill="#5D89C3" height="16" rx="0" ry="0" width="1.6" x="212" y="6"/>
    <text x="384" y="16">1%</text>
  </g>
  <g class="svg-font" transform="translate(0,320)">
    <text style="text-anchor:end;" x="200" y="18">Bulgarian (bg)</text>
    <rect fill="#999" height="16" rx="0" ry="0" style="filter:opacity(30%);" width="160" x="212" y="6"/>
    <text x="384" y="16">0%</text>
  </g>
  <g class="svg-font" transform="translate(0,352)">
    <text style="text-anchor:end;" x="200" y="18">Chinese Traditional (zh-TW)</text>
    <rect fill="#999" height="16" rx="0" ry="0" style="filter:opacity(30%);" width="160" x="212" y="6"/>
    <text x="384" y="16">0%</text>
  </g>
  <g class="svg-font" transform="translate(0,384)">
    <text style="text-anchor:end;" x="200" y="18">English, United Kingdom (en-GB)</text>
    <rect fill="#999" height="16" rx="0" ry="0" style="filter:opacity(30%);" width="160" x="212" y="6"/>
    <text x="384" y="16">0%</text>
  </g>
  <g class="svg-font" transform="translate(0,416)">
    <text style="text-anchor:end;" x="200" y="18">English, United States (en-US)</text>
    <rect fill="#999" height="16" rx="0" ry="0" style="filter:opacity(30%);" width="160" x="212" y="6"/>
    <text x="384" y="16">0%</text>
  </g>
  <g class="svg-font" transform="translate(0,448)">
    <text style="text-anchor:end;" x="200" y="18">Japanese (ja)</text>
    <rect fill="#999" height="16" rx="0" ry="0" style="filter:opacity(30%);" width="160" x="212" y="6"/>
    <text x="384" y="16">0%</text>
  </g>
  <g class="svg-font" transform="translate(0,480)">
    <text style="text-anchor:end;" x="200" y="18">Korean (ko)</text>
    <rect fill="#999" height="16" rx="0" ry="0" style="filter:opacity(30%);" width="160" x="212" y="6"/>
    <text x="384" y="16">0%</text>
  </g>
  <g class="svg-font" transform="translate(0,512)">
    <text style="text-anchor:end;" x="200" y="18">Portuguese (pt-PT)</text>
    <rect fill="#999" height="16" rx="0" ry="0" style="filter:opacity(30%);" width="160" x="212" y="6"/>
    <text x="384" y="16">0%</text>
  </g>
  <g class="svg-font" transform="translate(0,544)">
    <text style="text-anchor:end;" x="200" y="18">Portuguese, Brazilian (pt-BR)</text>
    <rect fill="#999" height="16" rx="0" ry="0" style="filter:opacity(30%);" width="160" x="212" y="6"/>
    <text x="384" y="16">0%</text>
  </g>
  <g class="svg-font" transform="translate(0,576)">
    <text style="text-anchor:end;" x="200" y="18">Vietnamese (vi)</text>
    <rect fill="#999" height="16" rx="0" ry="0" style="filter:opacity(30%);" width="160" x="212" y="6"/>
    <text x="384" y="16">0%</text>
  </g>
</svg>
